Title                            : Source Code
Year                             : 2011
Genre                            : Mystery | Sci-Fi | Thriller
iMDB URL                         : http://www.imdb.com/title/tt0945513/

Complete name                    : Source.Code.2011.BRRIP.720P.H264-ZEKTORM.mp4
Format                           : MPEG-4
Format profile                   : Base Media
Codec ID                         : isom
File size                        : 2.44 GiB
Duration                         : 1h 33mn
Overall bit rate                 : 3745 Kbps
Subtitles                        : English (Format: srt)

Video
ID                               : 1
Format                           : AVC
Format/Info                      : Advanced Video Codec
Format profile                   : High@L4.0
Format settings, CABAC           : Yes
Format settings, ReFrames        : 9 frames
Codec ID                         : avc1
Codec ID/Info                    : Advanced Video Coding
Duration                         : 1h 33mn
Bit rate mode                    : Variable
Maximum bit rate                 : 23.5 Mbps
Width                            : 1280 pixels
Height                           : 720 pixels
Display aspect ratio             : 16/9
Frame rate mode                  : Constant
Frame rate                       : 23.976 fps
Resolution                       : 24 bits
Colorimetry                      : 4:2:0
Scan type                        : Progressive
Bits/(Pixel*Frame)               : 0.150
Stream size                      : 2.14 GiB (88%)
Title                            : Video
Writing library                  : x264

Audio
ID                               : 2
Format                           : AAC
Format/Info                      : Advanced Audio Codec
Format version                   : Version 4
Format profile                   : LC
Format settings, SBR             : No
Codec ID                         : 40
Duration                         : 1h 33mn
Bit rate mode                    : Variable
Bit rate                         : 445 Kbps
Maximum bit rate                 : 555 Kbps
Channel(s)                       : 6 channels
Channel positions                : Front: L C R, Rear: L R, LFE
Sampling rate                    : 48.0 KHz
Resolution                       : 16 bits
Stream size                      : 297 MiB (12%)
Language                         : English


Screenshots:

[img]http://img146.imageshack.us/img146/8961/snapsc1.png[/img]

[img]http://img825.imageshack.us/img825/586/snapsc2.png[/img]

[img]http://img687.imageshack.us/img687/3025/snapsc3.png[/img]

[img]http://img685.imageshack.us/img685/575/snapsc4.png[/img]
